<svg aria-hidden="true" style="position: absolute; width: 0; height: 0; overflow: hidden;" version="1.1" xmlns="http://www.w3.org/2000/svg" xmlns:xlink="http://www.w3.org/1999/xlink">
<defs>
<symbol id="icon-logo" viewBox="0 0 69 32">
<path fill="#065c9e" style="fill: var(--color1, #065c9e)" d="M12.083 9.777c1.836 0 3.378 1.222 3.378 3.485 0 0.158 0 0.272-0.023 0.498h-5.509c0.068 1.154 0.997 1.901 2.154 1.901 0.975 0 1.655-0.453 2.018-1.064l1.179 0.837c-0.635 0.996-1.723 1.629-3.196 1.629-2.131 0-3.672-1.516-3.672-3.644 0-2.059 1.541-3.644 3.672-3.644zM9.997 12.628h3.899c-0.159-1.018-0.975-1.562-1.882-1.562s-1.791 0.521-2.018 1.562zM12.967 6.405h1.859l-2.085 2.67h-1.179l1.405-2.67z"></path>
<path fill="#065c9e" style="fill: var(--color1, #065c9e)" d="M33.187 9.777c1.020 0 1.859 0.521 2.244 1.086v-0.951h1.541v7.016h-1.541v-0.95c-0.385 0.566-1.247 1.086-2.244 1.086-1.927 0-3.378-1.652-3.378-3.644s1.451-3.644 3.378-3.644zM33.459 11.18c-1.247 0-2.086 0.973-2.086 2.241s0.839 2.24 2.086 2.24 2.086-0.973 2.086-2.24c0.023-1.267-0.839-2.241-2.086-2.241z"></path>
<path fill="#065c9e" style="fill: var(--color1, #065c9e)" d="M45.226 9.912h1.541v1.245c0.272-0.792 1.043-1.313 1.859-1.313 0.204 0 0.385 0.023 0.612 0.045v1.584c-0.272-0.091-0.499-0.136-0.771-0.136-0.884 0-1.678 0.747-1.678 2.15v3.417h-1.541v-6.993h-0.023z"></path>
<path fill="#065c9e" style="fill: var(--color1, #065c9e)" d="M58.010 9.777c1.836 0 3.378 1.222 3.378 3.485 0 0.158 0 0.272-0.023 0.498h-5.531c0.068 1.154 0.997 1.901 2.154 1.901 0.975 0 1.655-0.453 2.018-1.064l1.179 0.837c-0.635 0.996-1.723 1.629-3.196 1.629-2.131 0-3.672-1.516-3.672-3.644 0.023-2.059 1.541-3.644 3.695-3.644zM55.925 12.628h3.899c-0.159-1.018-0.975-1.562-1.881-1.562s-1.814 0.521-2.018 1.562z"></path>
<path fill="#065c9e" style="fill: var(--color1, #065c9e)" d="M32.668 32c-1.247 0-2.312-0.498-2.834-1.494l1.133-0.815c0.272 0.611 0.975 0.973 1.678 0.973 0.544 0 1.020-0.249 1.020-0.747 0-0.407-0.249-0.656-1.088-0.905l-0.612-0.158c-1.224-0.339-1.859-1.109-1.836-2.15 0.023-1.245 1.111-2.014 2.516-2.014 1.065 0 1.882 0.43 2.38 1.199l-1.065 0.815c-0.317-0.43-0.748-0.724-1.337-0.724-0.453 0-0.952 0.249-0.952 0.656 0 0.339 0.159 0.634 0.839 0.837l0.725 0.204c1.247 0.362 1.972 0.973 1.972 2.127 0 1.358-1.088 2.195-2.539 2.195z"></path>
<path fill="#065c9e" style="fill: var(--color1, #065c9e)" d="M36.633 24.849h1.541v3.938c0 1.132 0.499 1.81 1.405 1.81 0.997 0 1.723-0.792 1.723-2.308v-3.463h1.541v7.016h-1.541v-0.951c-0.408 0.702-1.156 1.086-2.063 1.086-1.609 0-2.607-1.154-2.607-2.965v-4.164z"></path>
<path fill="#065c9e" style="fill: var(--color1, #065c9e)" d="M51.344 32c-1.247 0-2.312-0.498-2.834-1.494l1.133-0.815c0.272 0.611 0.975 0.973 1.678 0.973 0.544 0 1.020-0.249 1.020-0.747 0-0.407-0.249-0.656-1.088-0.905l-0.612-0.158c-1.224-0.339-1.859-1.109-1.836-2.15 0.023-1.245 1.111-2.014 2.516-2.014 1.065 0 1.882 0.43 2.38 1.199l-1.065 0.815c-0.317-0.43-0.748-0.724-1.337-0.724-0.453 0-0.952 0.249-0.952 0.656 0 0.339 0.159 0.634 0.839 0.837l0.725 0.204c1.247 0.362 1.972 0.973 1.972 2.127 0.023 1.358-1.088 2.195-2.539 2.195z"></path>
<path fill="#065c9e" style="fill: var(--color1, #065c9e)" d="M57.942 32c-1.247 0-2.312-0.498-2.834-1.494l1.133-0.815c0.272 0.611 0.975 0.973 1.678 0.973 0.544 0 1.020-0.249 1.020-0.747 0-0.407-0.249-0.656-1.088-0.905l-0.612-0.158c-1.224-0.339-1.859-1.109-1.836-2.15 0.023-1.245 1.111-2.014 2.516-2.014 1.065 0 1.881 0.43 2.38 1.199l-1.065 0.815c-0.317-0.43-0.748-0.724-1.337-0.724-0.453 0-0.952 0.249-0.952 0.656 0 0.339 0.159 0.634 0.839 0.837l0.725 0.204c1.247 0.362 1.972 0.973 1.972 2.127 0 1.358-1.088 2.195-2.539 2.195z"></path>
<path fill="#065c9e" style="fill: var(--color1, #065c9e)" d="M65.399 24.713c1.836 0 3.378 1.222 3.378 3.485 0 0.158 0 0.272-0.023 0.498h-5.531c0.068 1.154 0.997 1.901 2.154 1.901 0.975 0 1.655-0.453 2.018-1.064l1.179 0.837c-0.635 0.996-1.723 1.629-3.196 1.629-2.131 0-3.672-1.516-3.672-3.644 0.045-2.059 1.564-3.644 3.695-3.644zM63.336 27.564h3.899c-0.159-1.018-0.975-1.562-1.881-1.562s-1.814 0.52-2.018 1.562z"></path>
<path fill="#065c9e" style="fill: var(--color1, #065c9e)" d="M3.808 9.777c-1.020 0-1.859 0.521-2.267 1.086v-0.95h-1.541v10.772c0.861 0 1.541-0.679 1.541-1.539v-3.168c0.385 0.566 1.247 1.086 2.267 1.086 1.927 0 3.378-1.652 3.378-3.644s-1.451-3.644-3.378-3.644zM3.536 15.661c-1.247 0-2.108-0.973-2.108-2.24s0.861-2.24 2.108-2.24 2.086 0.973 2.086 2.24c0 1.267-0.861 2.241-2.086 2.241z"></path>
<path fill="#065c9e" style="fill: var(--color1, #065c9e)" d="M24.098 5.454c-0.861 0-1.541 0.679-1.541 1.539v3.847c-0.385-0.566-1.247-1.086-2.244-1.086-1.927 0-3.378 1.652-3.378 3.644s1.428 3.666 3.355 3.666c1.020 0 1.859-0.52 2.244-1.086v0.95h1.541v-11.474h0.023zM20.584 15.66c-1.247 0-2.086-0.973-2.086-2.24s0.839-2.241 2.086-2.241c1.247 0 2.085 0.973 2.085 2.241s-0.839 2.24-2.085 2.24z"></path>
<path fill="#065c9e" style="fill: var(--color1, #065c9e)" d="M43.412 11.27v-1.38h-2.018v-2.648c-0.861 0-1.541 0.702-1.541 1.539v1.109h-1.451v1.38h1.451v3.372c0 1.584 1.043 2.331 2.403 2.331 0.476 0 0.839-0.045 1.156-0.158v-1.38c-0.227 0.091-0.544 0.136-0.839 0.136-0.793 0-1.179-0.317-1.179-1.199v-3.1h2.018z"></path>
<path fill="#065c9e" style="fill: var(--color1, #065c9e)" d="M27.247 5.409c1.088 0 1.972 0.883 1.972 1.969s-0.884 1.969-1.972 1.969c-1.088 0-1.972-0.883-1.972-1.969s0.884-1.969 1.972-1.969z"></path>
<path fill="#065c9e" style="fill: var(--color1, #065c9e)" d="M51.775 9.279c2.567 0 4.647-2.077 4.647-4.639s-2.081-4.639-4.647-4.639c-2.567 0-4.647 2.077-4.647 4.639s2.081 4.639 4.647 4.639z"></path>
<path fill="#065c9e" style="fill: var(--color1, #065c9e)" d="M51.773 9.957c-0.272 0-0.521-0.023-0.771-0.068v7.016h1.541v-7.016c-0.272 0.045-0.521 0.068-0.771 0.068z"></path>
<path fill="#065c9e" style="fill: var(--color1, #065c9e)" d="M45.928 24.26c1.778 0 3.219-1.439 3.219-3.214s-1.441-3.214-3.219-3.214-3.219 1.439-3.219 3.214c0 1.775 1.441 3.214 3.219 3.214z"></path>
<path fill="#065c9e" style="fill: var(--color1, #065c9e)" d="M45.928 24.917c-0.272 0-0.521-0.023-0.771-0.068v7.015h1.541v-7.015c-0.249 0.045-0.521 0.068-0.771 0.068z"></path>
<path fill="#065c9e" style="fill: var(--color1, #065c9e)" d="M27.249 10.026c-0.272 0-0.521-0.045-0.771-0.113v7.016h1.541v-7.016c-0.249 0.068-0.499 0.113-0.771 0.113z"></path>
</symbol>
<symbol id="icon-arrow" viewBox="0 0 32 32">
<path d="M22.869 10.667c0-0.491-0.398-0.889-0.889-0.889h-8c-0.491 0-0.889 0.398-0.889 0.889s0.398 0.889 0.889 0.889h7.111v7.111c0 0.491 0.398 0.889 0.889 0.889s0.889-0.398 0.889-0.889v-8zM11.295 22.609l11.314-11.314-1.257-1.257-11.314 11.314 1.257 1.257z"></path>
<path fill="none" stroke="#202020" style="stroke: var(--color1, #202020)" stroke-linejoin="miter" stroke-linecap="butt" stroke-miterlimit="4" stroke-width="1.7778" d="M31.111 16c0 8.346-6.765 15.111-15.111 15.111s-15.111-6.765-15.111-15.111c0-8.346 6.765-15.111 15.111-15.111s15.111 6.765 15.111 15.111z"></path>
</symbol>
<symbol id="icon-vector" viewBox="0 0 46 32">
<path stroke-linejoin="miter" stroke-linecap="butt" stroke-miterlimit="4" stroke-width="9.1429" d="M4.571 4.571l18.286 18.286 18.286-18.286"></path>
</symbol>
<symbol id="icon-burger" viewBox="0 0 44 32">
<path d="M0 0h43.636v5.818h-43.636v-5.818z"></path>
<path d="M0 13.091h29.091v5.818h-29.091v-5.818z"></path>
<path d="M0 26.182h14.545v5.818h-14.545v-5.818z"></path>
</symbol>
<symbol id="icon-group" viewBox="0 0 177 32">
<path fill="#054b80" style="fill: var(--color1, #054b80)" d="M7.22 22.118h-7.183v-16.342h6.347c1.102 0 2.052 0.114 2.85 0.38s1.406 0.608 1.824 1.064c0.722 0.836 1.102 1.786 1.102 2.85 0 1.292-0.418 2.242-1.254 2.85-0.266 0.228-0.494 0.342-0.57 0.418-0.114 0.038-0.304 0.152-0.57 0.266 1.026 0.228 1.824 0.684 2.432 1.368s0.912 1.558 0.912 2.584c0 1.14-0.38 2.128-1.178 3.002-0.912 1.064-2.47 1.558-4.713 1.558zM3.686 12.389h1.748c1.026 0 1.748-0.114 2.242-0.342s0.722-0.684 0.722-1.406-0.228-1.216-0.684-1.444c-0.456-0.228-1.216-0.342-2.28-0.342h-1.748v3.534zM3.686 19.040h2.508c1.064 0 1.824-0.114 2.356-0.38s0.798-0.76 0.798-1.52c0-0.76-0.266-1.254-0.836-1.482s-1.444-0.38-2.66-0.38h-2.166v3.762z"></path>
<path fill="#054b80" style="fill: var(--color1, #054b80)" d="M22.237 22.119h-7.183v-16.342h6.385c1.102 0 2.052 0.114 2.85 0.38s1.406 0.608 1.824 1.064c0.722 0.836 1.102 1.786 1.102 2.85 0 1.292-0.418 2.242-1.254 2.85-0.266 0.228-0.494 0.342-0.57 0.418-0.114 0.038-0.304 0.152-0.57 0.266 1.026 0.228 1.824 0.684 2.432 1.368s0.912 1.558 0.912 2.584c0 1.14-0.38 2.128-1.178 3.002-0.95 1.064-2.508 1.558-4.75 1.558zM18.741 12.39h1.748c1.026 0 1.748-0.114 2.242-0.342s0.722-0.684 0.722-1.406-0.228-1.216-0.684-1.444c-0.456-0.228-1.216-0.342-2.28-0.342h-1.748v3.534zM18.741 19.041h2.508c1.026 0 1.824-0.114 2.356-0.38s0.798-0.76 0.798-1.52c0-0.76-0.266-1.254-0.836-1.482s-1.444-0.38-2.66-0.38h-2.166v3.762z"></path>
<path fill="#054b80" style="fill: var(--color1, #054b80)" d="M35.46 8.59c-0.608 0-1.102 0.152-1.444 0.418-0.342 0.304-0.532 0.684-0.532 1.14 0 0.494 0.228 0.836 0.646 1.14 0.418 0.266 1.406 0.608 2.964 0.988s2.774 0.95 3.61 1.71c0.874 0.76 1.292 1.862 1.292 3.344s-0.532 2.66-1.634 3.572c-1.102 0.912-2.546 1.368-4.332 1.368-2.584 0-4.941-0.95-6.993-2.888l2.166-2.66c1.748 1.558 3.382 2.318 4.903 2.318 0.684 0 1.216-0.152 1.596-0.418 0.38-0.304 0.57-0.684 0.57-1.178s-0.19-0.874-0.608-1.178c-0.418-0.304-1.216-0.57-2.394-0.874-1.9-0.456-3.306-1.026-4.18-1.748s-1.33-1.862-1.33-3.42c0-1.558 0.57-2.736 1.672-3.61 1.102-0.836 2.508-1.254 4.18-1.254 1.102 0 2.166 0.19 3.268 0.57s2.052 0.912 2.85 1.596l-1.862 2.66c-1.444-1.026-2.888-1.596-4.409-1.596z"></path>
<path fill="#4b494a" style="fill: var(--color2, #4b494a)" d="M56.929 18.888c1.786 0 3.268-0.722 4.409-2.128l2.356 2.394c-1.862 2.090-4.028 3.154-6.575 3.154-2.508 0-4.599-0.798-6.233-2.394s-2.432-3.61-2.432-6.043c0-2.432 0.836-4.447 2.508-6.081s3.686-2.432 6.081-2.432c2.698 0 4.941 1.026 6.727 3.078l-2.28 2.584c-1.14-1.444-2.584-2.166-4.294-2.166-1.368 0-2.546 0.456-3.534 1.33-0.988 0.912-1.444 2.090-1.444 3.61s0.456 2.736 1.368 3.648c0.912 0.988 2.014 1.444 3.344 1.444z"></path>
<path fill="#4b494a" style="fill: var(--color2, #4b494a)" d="M78.062 13.872c0-0.57-0.076-1.064-0.19-1.558 0.76-1.102 1.596-2.166 2.47-3.268 0.95 1.368 1.444 2.964 1.444 4.789 0 2.394-0.836 4.409-2.47 6.043-1.672 1.596-3.686 2.432-6.119 2.432s-4.447-0.798-6.119-2.432c-1.672-1.596-2.47-3.61-2.47-6.043 0-0.836 0.114-1.672 0.304-2.394 1.14 0.57 2.28 1.33 3.42 2.28v0.152c0 1.444 0.456 2.698 1.406 3.724s2.090 1.52 3.458 1.52c0.076 0 0.152 0 0.228 0h0.228c1.178-0.114 2.166-0.608 3.002-1.52 0.912-1.026 1.406-2.28 1.406-3.724zM75.44 9.159c0.722-0.76 1.52-1.596 2.432-2.47-1.368-0.874-2.926-1.292-4.675-1.292-1.976 0-3.724 0.532-5.169 1.634 0.874 0.608 1.786 1.368 2.736 2.242 0.722-0.456 1.558-0.684 2.47-0.684 0.798 0 1.558 0.19 2.204 0.57z"></path>
<path fill="#4b494a" style="fill: var(--color2, #4b494a)" d="M95.618 5.777h3.686v16.342h-3.686l-7.791-10.223v10.223h-3.648v-16.342h3.42l8.019 10.527v-10.527z"></path>
<path fill="#4b494a" style="fill: var(--color2, #4b494a)" d="M112.948 13.796h3.686v5.815c-1.634 1.824-3.876 2.698-6.726 2.698-2.395 0-4.408-0.798-6.043-2.394s-2.432-3.61-2.432-6.043c0-2.432 0.836-4.446 2.508-6.081s3.649-2.432 6.005-2.432c2.356 0 4.37 0.76 6.118 2.318l-1.9 2.736c-0.722-0.646-1.407-1.064-2.015-1.33-0.608-0.228-1.292-0.38-2.014-0.38-1.406 0-2.546 0.456-3.497 1.406s-1.444 2.204-1.444 3.724c0 1.52 0.456 2.774 1.368 3.724 0.912 0.912 2.014 1.406 3.269 1.406s2.318-0.228 3.154-0.722v-4.447h-0.038z"></path>
<path fill="#4b494a" style="fill: var(--color2, #4b494a)" d="M132.481 11.211c0 2.622-1.026 4.295-3.117 5.093l4.143 5.853h-4.523l-3.611-5.207h-2.546v5.207h-3.649v-16.342h6.195c2.546 0 4.37 0.418 5.435 1.292 1.102 0.798 1.673 2.204 1.673 4.104zM125.526 13.758c1.253 0 2.090-0.19 2.546-0.608 0.455-0.418 0.684-1.064 0.684-1.938s-0.228-1.482-0.684-1.824c-0.457-0.342-1.293-0.494-2.47-0.494h-2.737v4.827h2.661v0.038z"></path>
<path fill="#4b494a" style="fill: var(--color2, #4b494a)" d="M147.003 5.776v3.268h-8.133v3.344h7.334v3.116h-7.334v3.382h8.399v3.23h-12.047v-16.342h11.781z"></path>
<path fill="#4b494a" style="fill: var(--color2, #4b494a)" d="M155.439 8.59c-0.608 0-1.102 0.152-1.443 0.418-0.342 0.304-0.532 0.684-0.532 1.14 0 0.494 0.228 0.836 0.645 1.14 0.418 0.266 1.407 0.608 2.965 0.988 1.557 0.38 2.773 0.95 3.61 1.71 0.875 0.76 1.293 1.862 1.293 3.344s-0.532 2.66-1.634 3.572c-1.103 0.912-2.547 1.368-4.333 1.368-2.585 0-4.941-0.95-6.993-2.888l2.166-2.66c1.748 1.558 3.382 2.318 4.902 2.318 0.684 0 1.216-0.152 1.597-0.418 0.38-0.304 0.57-0.684 0.57-1.178s-0.19-0.874-0.608-1.178c-0.418-0.304-1.216-0.57-2.395-0.874-1.9-0.456-3.306-1.026-4.18-1.748-0.874-0.722-1.33-1.862-1.33-3.42s0.571-2.736 1.673-3.61c1.102-0.836 2.508-1.254 4.18-1.254 1.102 0 2.166 0.19 3.268 0.57s2.052 0.912 2.85 1.596l-1.862 2.66c-1.406-1.026-2.887-1.596-4.409-1.596z"></path>
<path fill="#4b494a" style="fill: var(--color2, #4b494a)" d="M169.727 8.59c-0.608 0-1.102 0.152-1.444 0.418-0.342 0.304-0.532 0.684-0.532 1.14 0 0.494 0.228 0.836 0.646 1.14 0.418 0.266 1.406 0.608 2.964 0.988s2.774 0.95 3.611 1.71c0.874 0.76 1.292 1.862 1.292 3.344s-0.532 2.66-1.634 3.572c-1.102 0.912-2.546 1.368-4.333 1.368-2.583 0-4.94-0.95-6.992-2.888l2.166-2.66c1.747 1.558 3.382 2.318 4.902 2.318 0.684 0 1.178-0.152 1.596-0.418 0.38-0.304 0.571-0.684 0.571-1.178s-0.191-0.874-0.609-1.178c-0.417-0.304-1.216-0.57-2.394-0.874-1.901-0.456-3.307-1.026-4.18-1.748-0.875-0.722-1.33-1.862-1.33-3.42s0.57-2.736 1.671-3.61c1.103-0.836 2.509-1.254 4.181-1.254 1.102 0 2.165 0.19 3.268 0.57 1.102 0.38 2.052 0.912 2.85 1.596l-1.862 2.66c-1.444-1.026-2.926-1.596-4.409-1.596z"></path>
<path fill="#0c88ca" style="fill: var(--color3, #0c88ca)" d="M66.319 6.993c1.824 0.912 4.561 3.154 6.955 5.853 1.862-2.622 8.513-9.501 14.898-12.846-8.095 6.955-10.603 10.907-14.784 18.090-2.964-3.991-6.119-6.651-9.121-8.095l2.052-3.002z"></path>
<path fill="#054b80" style="fill: var(--color1, #054b80)" d="M66.319 6.993c1.824 0.912 4.561 3.154 6.955 5.853l-1.9 2.736c-2.356-2.622-4.789-4.485-7.107-5.587l2.052-3.002z"></path>
<path fill="#4b494a" style="fill: var(--color2, #4b494a)" d="M0 30.214h46.935v-0.722h-46.935v0.722zM128.151 30.214h47.163v-0.722h-47.163v0.722z"></path>
<path fill="#0f66b0" style="fill: var(--color4, #0f66b0)" d="M73.271 12.845c-0.722 0.874-1.368 1.824-1.9 2.736l2.014 2.508c0.608-1.026 1.102-1.862 1.71-2.888-0.38-0.684-1.33-1.9-1.824-2.356z"></path>
<path fill="#4b494a" style="fill: var(--color2, #4b494a)" d="M52.941 31.962h-1.824v-4.142h1.596c0.266 0 0.532 0.038 0.722 0.114s0.342 0.152 0.456 0.266c0.19 0.228 0.266 0.456 0.266 0.722 0 0.342-0.114 0.57-0.304 0.722-0.076 0.038-0.114 0.076-0.152 0.114-0.038 0-0.076 0.038-0.152 0.076 0.266 0.038 0.456 0.152 0.608 0.342s0.228 0.38 0.228 0.646c0 0.304-0.114 0.532-0.304 0.76s-0.608 0.38-1.14 0.38zM51.801 29.53h0.874c0.494 0 0.76-0.19 0.76-0.532 0-0.19-0.076-0.342-0.19-0.418s-0.304-0.114-0.57-0.114h-0.912v1.064h0.038zM51.801 31.316h1.102c0.266 0 0.456-0.038 0.608-0.114s0.19-0.228 0.19-0.456c0-0.38-0.304-0.57-0.874-0.57h-1.026v1.14z"></path>
<path fill="#4b494a" style="fill: var(--color2, #4b494a)" d="M60.388 27.82v0.646h-2.204v1.102h2.014v0.608h-2.014v1.102h2.28v0.684h-2.964v-4.142h2.888z"></path>
<path fill="#4b494a" style="fill: var(--color2, #4b494a)" d="M65.138 28.466v3.496h-0.684v-3.496h-1.254v-0.646h3.192v0.646h-1.254z"></path>
<path fill="#4b494a" style="fill: var(--color2, #4b494a)" d="M70.917 28.466v3.496h-0.684v-3.496h-1.254v-0.646h3.192v0.646h-1.254z"></path>
<path fill="#4b494a" style="fill: var(--color2, #4b494a)" d="M78.064 27.82v0.646h-2.204v1.102h1.976v0.608h-1.976v1.102h2.28v0.684h-3.002v-4.142h2.926z"></path>
<path fill="#4b494a" style="fill: var(--color2, #4b494a)" d="M84.523 29.15c0 0.684-0.304 1.102-0.912 1.292l1.102 1.52h-0.874l-0.988-1.406h-0.912v1.406h-0.684v-4.142h1.558c0.646 0 1.102 0.114 1.368 0.304 0.228 0.228 0.342 0.57 0.342 1.026zM82.812 29.91c0.38 0 0.646-0.076 0.798-0.19s0.228-0.304 0.228-0.608c0-0.304-0.076-0.456-0.228-0.57s-0.418-0.152-0.798-0.152h-0.874v1.482h0.874v0.038z"></path>
<path fill="#4b494a" style="fill: var(--color2, #4b494a)" d="M91.174 31.962h-1.824v-4.142h1.596c0.266 0 0.532 0.038 0.722 0.114s0.342 0.152 0.456 0.266c0.19 0.228 0.266 0.456 0.266 0.722 0 0.342-0.114 0.57-0.304 0.722-0.076 0.038-0.114 0.076-0.152 0.114-0.038 0-0.076 0.038-0.152 0.076 0.266 0.038 0.456 0.152 0.608 0.342s0.228 0.38 0.228 0.646c0 0.304-0.114 0.532-0.304 0.76-0.152 0.228-0.57 0.38-1.14 0.38zM90.072 29.53h0.874c0.494 0 0.76-0.19 0.76-0.532 0-0.19-0.076-0.342-0.19-0.418s-0.304-0.114-0.57-0.114h-0.912v1.064h0.038zM90.072 31.316h1.102c0.266 0 0.456-0.038 0.608-0.114s0.19-0.228 0.19-0.456c0-0.38-0.304-0.57-0.874-0.57h-1.026v1.14z"></path>
<path fill="#4b494a" style="fill: var(--color2, #4b494a)" d="M98.659 27.82v0.646h-2.204v1.102h1.976v0.608h-1.976v1.102h2.28v0.684h-2.964v-4.142h2.888z"></path>
<path fill="#4b494a" style="fill: var(--color2, #4b494a)" d="M104.7 28.352c-0.19 0-0.38 0.038-0.494 0.114s-0.19 0.19-0.19 0.38c0 0.152 0.076 0.304 0.19 0.38s0.418 0.19 0.836 0.304c0.418 0.114 0.76 0.228 0.95 0.418 0.228 0.19 0.304 0.456 0.304 0.836s-0.152 0.646-0.418 0.874c-0.266 0.228-0.646 0.342-1.064 0.342-0.646 0-1.216-0.228-1.71-0.684l0.456-0.532c0.418 0.38 0.836 0.532 1.292 0.532 0.228 0 0.418-0.038 0.532-0.152s0.19-0.228 0.19-0.38c0-0.152-0.076-0.266-0.19-0.38-0.114-0.076-0.342-0.152-0.646-0.228s-0.532-0.152-0.684-0.19c-0.152-0.076-0.304-0.152-0.418-0.228-0.228-0.19-0.38-0.456-0.38-0.836s0.152-0.684 0.418-0.874c0.266-0.19 0.608-0.304 1.026-0.304 0.266 0 0.532 0.038 0.798 0.114s0.494 0.228 0.684 0.38l-0.38 0.532c-0.114-0.114-0.304-0.19-0.494-0.266-0.19-0.114-0.38-0.152-0.608-0.152z"></path>
<path fill="#4b494a" style="fill: var(--color2, #4b494a)" d="M109.986 31.012l-0.418 0.95h-0.759l1.824-4.142h0.761l1.824 4.142h-0.761l-0.418-0.95h-2.052zM111.773 30.366l-0.761-1.71-0.759 1.71h1.52z"></path>
<path fill="#4b494a" style="fill: var(--color2, #4b494a)" d="M116.714 28.466v1.14h1.824v0.646h-1.824v1.71h-0.722v-4.142h2.774v0.646h-2.052z"></path>
<path fill="#4b494a" style="fill: var(--color2, #4b494a)" d="M124.693 27.82v0.646h-2.205v1.102h1.977v0.608h-1.977v1.102h2.281v0.684h-3.003v-4.142h2.927z"></path>
</symbol>
</defs>
</svg>